<?xml version="1.0" standalone="no"?>
<!DOCTYPE svg PUBLIC "-//W3C//DTD SVG 20010904//EN"
 "http://www.w3.org/TR/2001/REC-SVG-20010904/DTD/svg10.dtd">
<svg version="1.0" xmlns="http://www.w3.org/2000/svg"
 width="216.000000pt" height="216.000000pt" viewBox="0 0 216.000000 216.000000"
 preserveAspectRatio="xMidYMid meet">
<metadata>
Created by potrace 1.14, written by Peter Selinger 2001-2017
</metadata>
<g transform="translate(0.000000,216.000000) scale(0.100000,-0.100000)"
fill="#000000" stroke="none">
<path d="M988 1855 c-2 -1 -34 -5 -73 -8 -100 -9 -225 -37 -330 -74 -154 -55
-294 -165 -341 -267 -24 -53 -26 -66 -22 -159 4 -117 22 -159 101 -238 38 -38
49 -58 76 -145 17 -56 32 -110 34 -120 1 -10 5 -23 9 -29 3 -5 11 -37 19 -70
7 -33 17 -66 23 -74 8 -11 8 -13 0 -8 -7 4 -14 0 -17 -8 -4 -9 -1 -12 7 -9 16
6 31 -12 17 -20 -13 -9 -42 4 -40 18 2 12 -18 66 -25 66 -2 0 -2 -9 1 -20 5
-18 -5 -25 -29 -21 -5 0 -8 -4 -8 -9 0 -6 5 -10 11 -10 5 0 7 -5 3 -12 -4 -7
-3 -8 5 -4 6 4 14 0 17 -8 3 -9 9 -14 13 -12 4 3 13 1 20 -4 15 -9 6 -30 -12
-30 -7 0 -6 4 3 10 8 5 12 10 8 11 -14 3 -28 6 -33 9 -3 1 -10 3 -16 4 -6 0
-17 12 -26 26 -8 14 -12 17 -9 7 4 -12 -2 -21 -17 -28 -19 -8 -18 -9 7 -4 26
6 28 4 17 -9 -8 -9 -21 -16 -30 -17 -11 0 -12 -2 -3 -6 7 -3 22 3 33 13 10 9
19 12 19 6 0 -16 -40 -41 -56 -35 -8 3 -14 0 -14 -7 0 -6 4 -9 9 -6 5 3 12 -2
16 -12 6 -15 8 -15 19 6 11 21 12 20 13 -20 1 -31 -1 -38 -9 -25 -7 14 -13 15
-29 6 -12 -6 -18 -13 -15 -16 3 -3 12 0 21 7 18 15 20 -1 3 -18 -9 -9 -9 -12
3 -13 7 -1 18 -1 22 0 4 1 7 -4 6 -11 -4 -30 3 -34 56 -34 36 1 54 5 51 12 -2
6 0 17 5 25 5 9 7 4 5 -16 -2 -17 -5 -30 -6 -30 -1 0 -3 -8 -5 -19 -2 -10 -12
-28 -23 -40 -19 -20 -27 -60 -11 -50 5 2 6 11 3 19 -7 17 30 9 47 -11 6 -8 16
-14 22 -14 6 0 1 7 -11 16 -12 8 -22 20 -22 25 0 6 12 2 27 -9 16 -11 36 -18
46 -17 9 2 17 0 17 -4 0 -4 11 -13 24 -19 20 -9 27 -7 40 7 19 20 20 31 5 31
-5 0 -7 -4 -4 -10 3 -5 0 -8 -7 -7 -7 2 -10 2 -5 0 13 -8 -3 -22 -18 -17 -8 4
-12 11 -8 17 4 6 1 7 -7 2 -9 -6 -11 -4 -5 5 6 9 4 11 -5 5 -8 -5 -11 -4 -6 3
3 6 -1 9 -11 8 -10 -2 -27 3 -39 11 -11 7 -23 11 -26 8 -3 -3 -8 1 -11 9 -4 9
-2 18 4 21 5 4 7 10 4 15 -3 5 -1 11 4 14 10 7 9 -13 -2 -30 -4 -7 0 -15 9
-18 8 -3 12 -2 9 3 -3 5 0 13 6 17 8 4 9 3 5 -4 -4 -7 -2 -12 4 -12 6 0 8 -4
5 -10 -3 -5 1 -10 9 -10 9 0 15 5 13 11 -1 6 5 14 13 16 13 4 13 3 0 -6 -8 -6
-13 -11 -10 -12 3 0 15 -2 28 -5 12 -2 22 1 22 6 0 6 5 10 10 10 18 0 10 -18
-10 -25 -11 -4 -18 -11 -14 -16 3 -6 15 -4 29 5 21 14 24 14 29 0 3 -9 1 -25
-5 -36 -10 -19 0 -37 22 -38 3 0 5 -12 3 -26 -1 -14 0 -23 4 -20 13 14 7 48
-10 57 -16 8 -17 13 -7 25 6 8 17 13 23 13 19 -3 46 13 39 24 -3 6 -1 7 6 3 6
-4 9 -11 6 -16 -6 -9 13 -27 35 -32 28 -6 39 -22 27 -38 -9 -12 -9 -13 3 -3
21 19 35 16 19 -4 -8 -9 -9 -14 -2 -10 6 4 13 4 16 0 2 -5 2 -3 1 4 -2 7 0 15
5 17 14 9 5 46 -15 61 -10 8 -14 15 -8 15 15 0 46 -35 38 -43 -4 -4 -1 -13 6
-22 10 -12 10 -15 -1 -15 -11 -1 -11 -3 1 -9 8 -5 32 -8 53 -7 26 2 37 -1 34
-9 -3 -7 5 -11 22 -10 31 1 53 13 46 24 -2 5 7 9 21 9 l26 0 -28 -25 -29 -24
30 17 c17 10 32 19 34 21 2 1 -2 10 -9 18 -10 11 -15 13 -20 4 -4 -6 -10 -7
-13 -3 -3 5 1 15 9 22 8 7 14 9 14 3 0 -13 24 -8 46 9 10 8 15 10 11 3 -4 -6
-3 -14 3 -18 9 -6 14 8 11 28 -1 4 12 1 29 -8 17 -9 35 -13 40 -10 11 7 42
-19 34 -28 -8 -8 -35 3 -30 12 3 4 -4 7 -14 7 -10 0 -17 -3 -14 -7 2 -4 -7 -6
-21 -4 -14 1 -28 -2 -31 -7 -3 -4 -9 -6 -14 -3 -10 6 -25 -14 -16 -22 3 -3 12
0 20 6 11 10 17 8 26 -6 11 -17 11 -17 6 1 -5 13 -2 17 9 13 8 -4 17 -2 20 3
4 6 11 10 17 10 7 0 6 -6 -2 -15 -8 -9 -8 -15 -2 -15 6 0 13 6 15 13 4 8 12 4
26 -13 16 -19 20 -20 14 -6 -5 15 -3 17 8 11 11 -7 12 -6 2 7 -13 15 -8 28 9
28 5 0 6 -5 2 -12 -4 -6 -3 -8 3 -5 15 9 36 -19 27 -35 -5 -10 -4 -10 5 -2 13
12 5 44 -11 44 -5 0 -7 4 -3 9 9 15 -14 24 -30 11 -8 -6 -16 -7 -19 -2 -9 15
18 32 34 22 18 -12 33 -13 26 -2 -2 4 4 8 14 9 11 1 22 -3 25 -8 4 -5 11 -6
17 -3 6 4 5 10 -3 16 -10 6 -6 7 11 3 20 -6 23 -5 13 6 -7 7 -13 17 -13 23 0
5 6 1 14 -9 14 -20 11 -49 -5 -39 -5 3 -6 -3 -3 -13 4 -11 3 -14 -3 -7 -4 6
-18 10 -30 9 -13 -1 -20 3 -16 9 3 6 0 5 -8 -3 -11 -10 -11 -15 -1 -18 6 -3 9
-9 6 -15 -3 -5 4 -4 15 4 18 11 23 11 30 -1 7 -11 10 -10 15 6 3 11 13 20 21
20 11 0 13 -6 9 -20 -4 -13 -2 -17 5 -13 6 4 11 14 11 22 0 8 5 12 10 9 7 -4
7 -12 0 -25 -5 -10 -10 -25 -10 -32 1 -7 7 1 14 17 7 17 11 33 9 37 -5 10 40
6 54 -4 6 -5 10 -18 8 -29 -2 -11 0 -17 5 -14 9 6 8 24 -3 43 -5 6 -4 12 2 12
5 0 15 -8 20 -17 10 -17 10 -17 11 0 0 9 -5 17 -11 17 -5 0 -7 5 -3 12 5 7 11
5 21 -7 13 -19 18 -10 13 24 -2 13 0 13 16 0 11 -8 15 -9 10 -2 -5 9 0 13 14
13 12 0 18 5 15 10 -4 7 -13 7 -26 0 -10 -6 -19 -7 -19 -3 0 4 -7 -1 -15 -11
-11 -15 -15 -16 -16 -5 -1 8 0 19 1 24 1 6 3 20 4 32 1 12 4 25 8 28 3 4 4 -9
3 -28 -3 -24 0 -34 11 -34 8 0 14 4 14 9 0 5 5 6 11 3 6 -4 9 -1 7 7 -2 7 2
14 7 14 6 0 8 -7 7 -16 -3 -10 5 -7 22 9 31 29 32 34 7 26 -11 -3 -22 -2 -24
3 -3 4 6 8 21 7 20 0 26 -5 24 -17 -2 -12 2 -16 12 -12 18 7 17 24 -4 42 -12
11 -11 11 10 0 14 -7 28 -11 33 -10 4 1 7 -3 7 -9 0 -6 -7 -8 -16 -5 -8 3 -13
2 -10 -3 9 -13 -19 -32 -37 -25 -20 7 -19 -27 1 -46 12 -11 13 -10 7 9 -4 12
-2 21 4 21 6 0 11 -6 11 -12 1 -8 7 -5 15 6 8 10 12 22 10 26 -3 5 2 10 10 14
8 3 19 -3 25 -12 9 -16 12 -15 29 5 10 12 21 19 25 16 3 -4 6 -2 6 4 0 14 -53
14 -62 -1 -6 -8 -8 -8 -8 1 0 7 -12 19 -27 27 -16 8 -22 15 -15 16 7 0 10 5 6
12 -4 7 -3 8 5 4 6 -4 9 -12 6 -17 -4 -5 -1 -9 6 -9 6 0 9 8 6 20 -3 11 -1 18
4 14 5 -3 9 -12 9 -19 0 -9 6 -12 18 -9 14 5 15 4 2 -5 -13 -9 -12 -11 5 -8
11 1 25 6 32 10 6 4 13 1 16 -5 2 -7 4 2 3 21 -1 21 4 36 13 39 9 3 11 0 6 -8
-5 -8 -4 -11 3 -6 6 3 13 2 17 -4 3 -5 -1 -10 -9 -10 -9 0 -16 -5 -16 -10 0
-17 33 5 36 24 1 9 -2 14 -7 10 -5 -3 -9 -1 -9 5 0 5 -9 13 -20 16 -11 4 -18
11 -14 16 3 5 9 7 13 4 5 -2 17 2 27 10 10 8 14 15 9 15 -6 0 -17 -6 -24 -12
-11 -11 -12 -9 -8 7 4 11 0 31 -8 45 -12 21 -14 22 -15 6 0 -11 -3 -16 -7 -12
-10 9 -13 36 -4 36 4 0 16 7 27 16 18 14 18 15 -4 4 -32 -16 -59 -5 -42 15 9
11 9 15 1 15 -7 0 -9 5 -5 12 4 6 3 8 -4 4 -6 -3 -13 -2 -16 2 -3 5 -15 9 -27
8 -15 -1 -23 -9 -26 -26 -2 -18 -1 -21 6 -10 5 8 7 18 5 22 -3 4 0 8 7 8 6 0
9 -8 6 -19 -3 -13 -1 -18 9 -14 7 2 10 12 6 21 -5 15 -4 15 11 3 23 -18 21
-31 -4 -31 -11 0 -18 -4 -14 -10 3 -5 12 -7 19 -4 8 3 17 1 21 -5 3 -7 0 -8
-9 -5 -18 7 -22 -11 -4 -22 7 -4 8 -3 4 4 -5 8 -2 10 8 6 9 -3 13 -10 10 -15
-7 -13 -34 -11 -34 2 0 5 -5 7 -10 4 -6 -4 -7 -12 -3 -18 12 -19 12 -37 1 -37
-6 0 -8 6 -5 14 6 14 -15 40 -24 31 -10 -9 -13 87 -4 130 4 17 6 38 6 48 0 9
5 17 11 17 5 0 8 6 5 14 -3 8 7 70 22 139 25 117 29 126 65 157 87 77 124 163
121 285 -2 82 -18 136 -53 185 -103 139 -302 233 -585 275 -41 6 -304 14 -309
10z m-545 -1211 c-4 -11 -8 -12 -20 -3 -11 10 -11 14 -1 20 17 10 28 2 21 -17z
m-19 -66 c-3 -4 1 -8 8 -8 8 0 6 -5 -5 -11 -9 -6 -15 -15 -11 -21 5 -7 8 -7
13 0 4 7 12 8 21 2 13 -8 13 -10 -1 -10 -9 0 -22 -7 -29 -15 -10 -12 -9 -16 4
-21 18 -7 22 -25 5 -21 -6 1 -14 -4 -17 -12 -2 -8 0 -11 5 -8 5 3 15 2 22 -2
9 -6 10 -11 2 -15 -6 -4 -11 -2 -11 5 0 8 -4 8 -15 -1 -8 -7 -15 -11 -16 -9
-6 34 -6 59 0 59 4 0 8 7 8 15 0 8 -5 15 -11 15 -6 0 -4 5 4 10 13 9 13 10 0
10 -12 0 -12 2 -1 9 9 6 10 11 2 15 -7 5 -7 12 1 26 9 13 15 16 19 8 4 -7 5
-16 3 -20z m1390 -3 c5 0 11 -6 14 -12 2 -7 -1 -13 -8 -13 -6 0 -9 -4 -5 -9 3
-5 1 -13 -5 -16 -8 -5 -7 -11 1 -21 10 -13 6 -18 -13 -15 -5 0 -8 -3 -8 -9 0
-5 6 -10 13 -10 9 0 9 -2 -1 -9 -8 -4 -13 -11 -13 -15 1 -3 -2 -6 -6 -6 -5 0
-8 13 -8 28 0 18 -6 28 -19 30 -11 3 -16 0 -11 -7 3 -6 11 -9 16 -6 5 4 9 1 9
-4 0 -16 -27 -13 -34 4 -3 9 3 19 14 25 14 8 20 8 20 0 0 -6 4 -9 9 -6 13 8 7
36 -9 46 -11 7 -11 11 -1 24 7 9 18 13 25 9 6 -4 15 -8 20 -8z m-1339 -14 c-8
-14 -25 -14 -25 0 0 5 5 7 10 4 6 -3 10 -1 10 6 0 7 3 10 6 6 3 -3 3 -10 -1
-16z m6 -38 c-12 -20 -14 -14 -5 12 4 9 9 14 11 11 3 -2 0 -13 -6 -23z m1241
-19 c-6 -12 -9 -7 -9 16 0 23 3 28 9 16 5 -9 5 -23 0 -32z m45 30 c-3 -3 -12
-4 -19 -1 -8 3 -5 6 6 6 11 1 17 -2 13 -5z m-1310 -30 c-3 -3 -12 -4 -19 -1
-8 3 -5 6 6 6 11 1 17 -2 13 -5z m74 -21 c13 -16 12 -17 -3 -4 -17 13 -22 21
-14 21 2 0 10 -8 17 -17z m-67 -8 c-4 -8 -8 -15 -10 -15 -2 0 -4 7 -4 15 0 8
4 15 10 15 5 0 7 -7 4 -15z m36 11 c0 -2 -8 -10 -17 -17 -16 -13 -17 -12 -4 4
13 16 21 21 21 13z m1190 -6 c0 -5 -2 -10 -4 -10 -3 0 -8 5 -11 10 -3 6 -1 10
4 10 6 0 11 -4 11 -10z m-1123 -81 c2 -16 1 -18 -11 -7 -8 7 -10 15 -5 16 5 2
6 9 2 15 -3 7 -2 9 2 4 5 -4 10 -17 12 -28z m1213 -7 c0 -13 -12 -22 -22 -16
-10 6 -1 24 13 24 5 0 9 -4 9 -8z m-1150 -6 c0 -3 -4 -8 -10 -11 -5 -3 -10 -1
-10 4 0 6 5 11 10 11 6 0 10 -2 10 -4z m60 0 c0 -3 -4 -8 -10 -11 -5 -3 -10
-1 -10 4 0 6 5 11 10 11 6 0 10 -2 10 -4z m-195 -35 c-3 -6 -11 -11 -17 -11
-6 0 -6 6 2 15 14 17 26 13 15 -4z m1035 -1 c-6 -11 -5 -21 2 -28 7 -7 4 -14
-12 -22 -15 -8 -20 -8 -16 -1 8 12 -6 15 -18 4 -3 -4 -24 -7 -44 -8 -36 -1
-38 0 -28 21 l11 23 9 -22 c9 -21 9 -21 14 -2 6 29 25 37 40 17 11 -15 14 -15
22 -2 14 22 12 30 -5 24 -8 -4 -15 -2 -15 3 0 5 11 9 24 9 20 0 23 -3 16 -16z
m-803 -14 c2 -2 0 -7 -6 -11 -6 -3 -11 -1 -11 5 0 6 -4 9 -9 5 -5 -3 -12 -1
-16 4 -5 9 33 7 42 -3z m683 4 c0 -5 -2 -10 -4 -10 -3 0 -8 5 -11 10 -3 6 -1
10 4 10 6 0 11 -4 11 -10z m-70 -4 c0 -2 -7 -7 -16 -10 -8 -3 -12 -2 -9 4 6
10 25 14 25 6z m-536 -23 c10 4 19 1 22 -8 4 -8 11 -12 18 -8 6 3 8 3 4 -2 -4
-4 -3 -14 4 -22 8 -11 7 -12 -5 -7 -9 3 -19 14 -22 23 -3 10 -15 17 -27 17
-11 -1 -23 6 -25 14 -4 12 -3 13 5 1 6 -8 17 -11 26 -8z m441 8 c3 -5 2 -12
-3 -15 -5 -3 -9 1 -9 9 0 17 3 19 12 6z m-144 -24 c-10 -9 -11 -8 -5 6 3 10 9
15 12 12 3 -3 0 -11 -7 -18z m119 7 c0 -2 -7 -4 -15 -4 -8 0 -15 4 -15 10 0 5
7 7 15 4 8 -4 15 -8 15 -10z m-278 -18 c6 4 8 3 5 -3 -4 -6 4 -10 18 -10 22 0
24 2 13 16 -12 14 -11 14 4 2 10 -7 15 -17 12 -22 -3 -5 0 -9 6 -9 7 0 7 -6
-1 -22 -10 -18 -13 -19 -20 -6 -6 10 -22 15 -48 14 -22 -1 -38 0 -36 3 3 2 1
9 -5 15 -5 7 -5 17 0 26 6 10 10 11 10 3 0 -7 10 -18 23 -24 21 -12 21 -11 5
8 -10 11 -18 24 -18 29 0 5 5 1 11 -9 6 -9 15 -14 21 -11z m98 9 c7 -9 8 -15
2 -15 -5 0 -12 7 -16 15 -3 8 -4 15 -2 15 2 0 9 -7 16 -15z m-15 -40 c2 -14 0
-27 -5 -30 -4 -3 -8 11 -8 31 0 39 9 39 13 -1z"/>
<path d="M405 581 c-3 -5 -2 -12 3 -15 5 -3 9 1 9 9 0 17 -3 19 -12 6z"/>
<path d="M1776 572 c-3 -6 1 -15 9 -22 8 -7 12 -17 8 -24 -3 -6 -2 -7 3 -3 5
5 9 12 9 15 0 4 4 14 9 22 5 8 6 12 1 8 -4 -4 -14 -3 -21 3 -7 6 -14 6 -18 1z"/>
<path d="M1786 502 c-3 -5 1 -9 9 -9 8 0 12 4 9 9 -3 4 -7 8 -9 8 -2 0 -6 -4
-9 -8z"/>
<path d="M1465 330 c-4 -6 -3 -16 3 -22 13 -13 23 4 13 21 -7 10 -10 10 -16 1z"/>
<path d="M954 257 c-4 -7 -4 -9 1 -5 4 4 14 3 22 -3 8 -7 13 -8 13 -1 0 15
-28 23 -36 9z"/>
<path d="M380 786 c0 -2 8 -10 18 -17 15 -13 16 -12 3 4 -13 16 -21 21 -21 13z"/>
<path d="M435 731 c-3 -5 -2 -12 3 -15 5 -3 9 1 9 9 0 17 -3 19 -12 6z"/>
<path d="M1726 718 c3 -4 9 -8 15 -8 5 0 9 4 9 8 0 5 -7 9 -15 9 -8 0 -12 -4
-9 -9z"/>
<path d="M1793 710 c-1 -11 2 -20 5 -20 4 0 8 9 9 20 1 11 -2 20 -5 20 -4 0
-8 -9 -9 -20z"/>
<path d="M1990 681 c0 -6 4 -13 10 -16 6 -3 7 1 4 9 -7 18 -14 21 -14 7z"/>
<path d="M310 666 c0 -2 7 -7 16 -10 8 -3 12 -2 9 4 -6 10 -25 14 -25 6z"/>
<path d="M1890 660 c0 -5 5 -10 11 -10 5 0 7 5 4 10 -3 6 -8 10 -11 10 -2 0
-4 -4 -4 -10z"/>
<path d="M1795 650 c-3 -6 1 -7 9 -4 18 7 21 14 7 14 -6 0 -13 -4 -16 -10z"/>
<path d="M275 640 c-3 -5 -1 -10 4 -10 6 0 11 5 11 10 0 6 -2 10 -4 10 -3 0
-8 -4 -11 -10z"/>
<path d="M1710 642 c0 -7 6 -12 13 -12 9 0 8 -3 -2 -9 -8 -5 -9 -11 -3 -15 18
-11 25 15 8 32 -10 11 -16 12 -16 4z"/>
<path d="M1850 642 c0 -5 7 -9 15 -9 8 0 12 4 9 9 -3 4 -9 8 -15 8 -5 0 -9 -4
-9 -8z"/>
<path d="M1975 629 c-4 -6 -5 -12 -2 -15 2 -3 7 2 10 11 7 17 1 20 -8 4z"/>
<path d="M1830 611 c0 -5 5 -13 10 -16 6 -3 10 -2 10 4 0 5 -4 13 -10 16 -5 3
-10 2 -10 -4z"/>
<path d="M1876 596 c-20 -17 -25 -26 -16 -31 9 -6 11 -4 5 5 -6 10 -4 12 9 7
11 -5 15 -3 10 5 -5 7 -2 9 7 6 10 -4 15 1 15 13 0 11 0 19 -1 19 0 -1 -13
-11 -29 -24z"/>
<path d="M265 600 c-3 -6 1 -7 9 -4 18 7 21 14 7 14 -6 0 -13 -4 -16 -10z"/>
<path d="M1970 580 c0 -5 5 -10 11 -10 5 0 7 5 4 10 -3 6 -8 10 -11 10 -2 0
-4 -4 -4 -10z"/>
<path d="M2006 578 c3 -5 10 -6 15 -3 13 9 11 12 -6 12 -8 0 -12 -4 -9 -9z"/>
<path d="M230 559 c0 -5 5 -7 10 -4 6 3 10 8 10 11 0 2 -4 4 -10 4 -5 0 -10
-5 -10 -11z"/>
<path d="M1892 561 c-11 -7 -11 -9 0 -14 9 -3 15 1 15 9 0 8 -1 14 -1 14 -1 0
-7 -4 -14 -9z"/>
<path d="M239 533 c-13 -16 -12 -17 4 -4 9 7 17 15 17 17 0 8 -8 3 -21 -13z"/>
<path d="M273 527 c-1 -11 -1 -18 0 -16 2 2 8 11 15 20 9 12 9 16 -1 16 -7 0
-14 -9 -14 -20z"/>
<path d="M320 536 c0 -2 7 -7 16 -10 8 -3 12 -2 9 4 -6 10 -25 14 -25 6z"/>
<path d="M176 518 c3 -5 10 -6 15 -3 13 9 11 12 -6 12 -8 0 -12 -4 -9 -9z"/>
<path d="M295 519 c-4 -6 -5 -12 -2 -15 2 -3 7 2 10 11 7 17 1 20 -8 4z"/>
<path d="M1905 519 c-4 -6 -4 -13 -1 -16 3 -4 6 -1 6 6 0 7 5 9 10 6 6 -3 10
-1 10 4 0 14 -17 14 -25 0z"/>
<path d="M1954 508 c-19 -23 -19 -23 2 -5 11 9 24 14 29 10 4 -5 5 -2 1 5 -9
16 -10 16 -32 -10z"/>
<path d="M315 509 c-4 -6 -5 -12 -2 -15 2 -3 7 2 10 11 7 17 1 20 -8 4z"/>
<path d="M1850 514 c0 -2 9 -8 20 -14 11 -6 20 -7 20 -2 0 6 -9 12 -20 15 -11
3 -20 3 -20 1z"/>
<path d="M290 480 c0 -5 5 -10 11 -10 5 0 7 5 4 10 -3 6 -8 10 -11 10 -2 0 -4
-4 -4 -10z"/>
<path d="M1892 481 c-11 -7 -11 -9 0 -14 9 -3 15 1 15 9 0 8 -1 14 -1 14 -1 0
-7 -4 -14 -9z"/>
<path d="M173 465 c0 -8 4 -12 9 -9 5 3 6 10 3 15 -9 13 -12 11 -12 -6z"/>
<path d="M320 476 c0 -3 12 -17 28 -31 21 -20 24 -27 13 -34 -15 -10 -7 -31
12 -30 8 0 8 2 -1 6 -9 3 -10 9 -2 18 6 7 8 19 5 26 -6 14 -55 54 -55 45z"/>
<path d="M268 458 c5 -5 16 -8 23 -6 8 3 3 7 -10 11 -17 4 -21 3 -13 -5z"/>
<path d="M1866 445 c-11 -8 -15 -15 -9 -15 6 0 16 7 23 15 16 19 11 19 -14 0z"/>
<path d="M1955 450 c-4 -6 -10 -8 -14 -6 -4 3 -8 -1 -8 -9 0 -13 4 -12 19 2
18 16 22 23 14 23 -3 0 -8 -5 -11 -10z"/>
<path d="M310 436 c0 -2 6 -9 14 -15 11 -9 16 -9 22 0 4 8 3 9 -4 5 -7 -4 -12
-2 -12 3 0 6 -4 11 -10 11 -5 0 -10 -2 -10 -4z"/>
<path d="M281 416 c-9 -11 -9 -16 1 -22 7 -4 10 -4 6 1 -4 4 -3 14 3 22 6 7 9
13 6 13 -2 0 -10 -6 -16 -14z"/>
<path d="M1833 423 c4 -6 2 -13 -5 -15 -8 -3 -6 -6 4 -10 17 -7 19 15 3 29 -4
4 -5 3 -2 -4z"/>
<path d="M1875 415 c-3 -8 -7 -22 -10 -31 -3 -8 -1 -13 4 -10 5 3 11 17 13 31
6 27 0 34 -7 10z"/>
<path d="M419 410 c-1 -3 -1 -8 0 -12 2 -12 -17 -10 -22 2 -3 6 -4 5 -3 -2 2
-7 0 -20 -5 -29 -5 -10 -3 -16 6 -16 7 0 11 7 7 15 -4 11 -1 13 7 8 7 -5 11
-17 8 -27 -3 -11 -1 -16 5 -13 5 3 7 17 4 29 -3 14 -1 27 6 31 6 4 8 3 4 -4
-3 -6 -2 -13 4 -17 6 -4 7 -12 4 -18 -4 -7 4 -2 18 11 34 31 31 47 -9 47 -18
0 -34 -2 -34 -5z m45 -25 c-4 -8 -10 -13 -15 -10 -4 3 -6 12 -3 20 4 8 10 13
15 10 4 -3 6 -12 3 -20z"/>
<path d="M1894 409 c-3 -6 -2 -15 3 -20 5 -5 9 -1 9 11 0 23 -2 24 -12 9z"/>
<path d="M213 395 c0 -8 4 -12 9 -9 5 3 6 10 3 15 -9 13 -12 11 -12 -6z"/>
<path d="M1813 374 c-3 -8 -1 -20 5 -26 8 -8 9 -5 5 11 -4 17 -2 20 11 15 9
-3 16 -4 16 -1 0 14 -31 15 -37 1z"/>
<path d="M1970 379 c0 -5 5 -7 10 -4 6 3 10 8 10 11 0 2 -4 4 -10 4 -5 0 -10
-5 -10 -11z"/>
<path d="M359 368 c-7 -25 -3 -40 14 -55 22 -18 22 -18 6 2 -9 11 -15 28 -14
38 3 13 -2 26 -6 15z"/>
<path d="M1731 358 c-1 -22 11 -29 29 -16 12 8 12 9 -2 4 -10 -3 -18 1 -21 12
-4 16 -5 16 -6 0z"/>
<path d="M1886 362 c-3 -5 1 -9 9 -9 8 0 12 4 9 9 -3 4 -7 8 -9 8 -2 0 -6 -4
-9 -8z"/>
<path d="M1867 339 c7 -7 15 -10 18 -7 3 3 -2 9 -12 12 -14 6 -15 5 -6 -5z"/>
<path d="M1635 320 c3 -5 11 -10 16 -10 6 0 7 5 4 10 -3 6 -11 10 -16 10 -6 0
-7 -4 -4 -10z"/>
<path d="M1710 319 c0 -5 5 -7 10 -4 6 3 10 8 10 11 0 2 -4 4 -10 4 -5 0 -10
-5 -10 -11z"/>
<path d="M1791 325 c4 -3 19 -8 35 -11 16 -3 26 -2 23 1 -4 3 -19 8 -35 11
-16 3 -26 2 -23 -1z"/>
<path d="M1919 313 c-13 -16 -12 -17 4 -4 9 7 17 15 17 17 0 8 -8 3 -21 -13z"/>
<path d="M1965 320 c-3 -6 1 -7 9 -4 18 7 21 14 7 14 -6 0 -13 -4 -16 -10z"/>
<path d="M1615 310 c3 -5 -1 -10 -9 -10 -9 0 -16 -5 -16 -10 0 -7 7 -7 20 0
17 9 20 30 4 30 -3 0 -2 -4 1 -10z"/>
<path d="M1753 305 c0 -8 4 -12 9 -9 5 3 6 10 3 15 -9 13 -12 11 -12 -6z"/>
<path d="M480 306 c0 -2 7 -7 16 -10 8 -3 12 -2 9 4 -6 10 -25 14 -25 6z"/>
<path d="M725 300 c-3 -6 -10 -8 -15 -5 -5 3 -12 0 -16 -7 -4 -7 -4 -10 1 -6
4 4 14 0 21 -10 12 -16 13 -16 19 0 4 10 12 15 17 12 6 -4 9 -1 6 6 -6 18 -25
24 -33 10z m8 -15 c-3 -9 -8 -14 -10 -11 -3 3 -2 9 2 15 9 16 15 13 8 -4z"/>
<path d="M550 289 c0 -5 -4 -8 -8 -5 -5 3 -9 -1 -9 -9 0 -10 4 -12 12 -5 7 5
16 6 20 2 5 -4 5 -2 2 5 -4 6 -1 14 5 16 8 3 6 6 -4 6 -10 1 -18 -4 -18 -10z"/>
<path d="M470 286 c0 -2 7 -7 16 -10 8 -3 12 -2 9 4 -6 10 -25 14 -25 6z"/>
<path d="M584 278 c-4 -7 -4 -10 1 -6 4 4 16 3 26 -3 11 -5 19 -7 19 -5 0 3
-9 10 -19 16 -15 7 -22 7 -27 -2z"/>
<path d="M1150 280 c0 -5 5 -10 10 -10 6 0 10 5 10 10 0 6 -4 10 -10 10 -5 0
-10 -4 -10 -10z"/>
<path d="M1620 280 c-8 -5 0 -7 18 -7 17 1 29 4 26 6 -8 9 -31 9 -44 1z"/>
<path d="M1696 278 c3 -5 10 -6 15 -3 13 9 11 12 -6 12 -8 0 -12 -4 -9 -9z"/>
<path d="M1799 273 c-13 -16 -12 -17 4 -4 16 13 21 21 13 21 -2 0 -10 -8 -17
-17z"/>
<path d="M763 273 c-7 -2 -13 -9 -13 -14 0 -6 5 -7 10 -4 10 6 14 -6 11 -35
-2 -13 0 -13 8 -1 6 9 6 22 1 32 -5 9 -6 19 -3 23 7 7 4 7 -14 -1z"/>
<path d="M1105 270 c-4 -6 -11 -7 -17 -4 -7 4 -8 2 -4 -5 6 -8 12 -9 20 -2 7
6 17 7 21 3 5 -4 5 -1 1 6 -9 15 -13 15 -21 2z"/>
<path d="M414 262 c4 -3 14 -7 22 -8 9 -1 13 0 10 4 -4 3 -14 7 -22 8 -9 1
-13 0 -10 -4z"/>
<path d="M790 259 c0 -5 5 -7 10 -4 6 3 10 8 10 11 0 2 -4 4 -10 4 -5 0 -10
-5 -10 -11z"/>
<path d="M1466 261 c-4 -5 3 -7 14 -4 23 6 26 13 6 13 -8 0 -17 -4 -20 -9z"/>
<path d="M1735 260 c-3 -5 -1 -10 4 -10 6 0 11 5 11 10 0 6 -2 10 -4 10 -3 0
-8 -4 -11 -10z"/>
<path d="M596 247 c3 -10 9 -15 12 -12 3 3 0 11 -7 18 -10 9 -11 8 -5 -6z"/>
<path d="M725 240 c3 -5 8 -10 11 -10 2 0 4 5 4 10 0 6 -5 10 -11 10 -5 0 -7
-4 -4 -10z"/>
<path d="M1335 241 c-3 -5 0 -13 6 -17 8 -5 9 -3 4 6 -6 10 -4 12 9 7 10 -4
15 -3 11 3 -8 13 -22 13 -30 1z"/>
<path d="M515 220 c-3 -5 -1 -10 4 -10 6 0 11 5 11 10 0 6 -2 10 -4 10 -3 0
-8 -4 -11 -10z"/>
<path d="M873 215 c0 -7 6 -11 14 -8 7 3 13 6 13 8 0 2 -6 5 -13 8 -8 3 -14
-1 -14 -8z"/>
<path d="M1172 220 c4 -18 -29 -21 -52 -6 -13 8 -13 8 -2 -4 17 -19 70 -22 68
-4 -1 7 -6 17 -10 21 -4 4 -6 1 -4 -7z"/>
<path d="M1214 219 c-3 -6 -2 -15 4 -21 6 -6 12 -6 17 3 6 8 4 10 -5 4 -10 -6
-12 -4 -7 8 7 19 2 23 -9 6z"/>
<path d="M1380 220 c-9 -6 -10 -10 -3 -10 6 0 15 5 18 10 8 12 4 12 -15 0z"/>
<path d="M910 213 c0 -1 8 -7 18 -12 13 -7 19 -6 19 2 0 7 -9 13 -19 13 -10 0
-18 -1 -18 -3z"/>
<path d="M1090 211 c0 -6 4 -13 10 -16 6 -3 7 1 4 9 -7 18 -14 21 -14 7z"/>
<path d="M1066 195 c4 -8 11 -15 16 -15 6 0 5 6 -2 15 -7 8 -14 15 -16 15 -2
0 -1 -7 2 -15z"/>
<path d="M1000 180 c-9 -6 -10 -10 -3 -10 6 0 15 5 18 10 8 12 4 12 -15 0z"/>
<path d="M1290 180 c0 -5 5 -10 11 -10 5 0 7 5 4 10 -3 6 -8 10 -11 10 -2 0
-4 -4 -4 -10z"/>
<path d="M1370 186 c0 -2 7 -7 16 -10 8 -3 12 -2 9 4 -6 10 -25 14 -25 6z"/>
<path d="M755 160 c-3 -5 -1 -10 4 -10 6 0 11 5 11 10 0 6 -2 10 -4 10 -3 0
-8 -4 -11 -10z"/>
<path d="M1319 153 c-13 -16 -12 -17 4 -4 16 13 21 21 13 21 -2 0 -10 -8 -17
-17z"/>
</g>
</svg>
